<?xml version="1.0" encoding="UTF-8" standalone="no"?>
<!-- Created with Inkscape (http://www.inkscape.org/) -->

<svg
   xmlns:dc="http://purl.org/dc/elements/1.1/"
   xmlns:cc="http://creativecommons.org/ns#"
   xmlns:rdf="http://www.w3.org/1999/02/22-rdf-syntax-ns#"
   xmlns:svg="http://www.w3.org/2000/svg"
   xmlns="http://www.w3.org/2000/svg"
   xmlns:xlink="http://www.w3.org/1999/xlink"
   xmlns:sodipodi="http://sodipodi.sourceforge.net/DTD/sodipodi-0.dtd"
   xmlns:inkscape="http://www.inkscape.org/namespaces/inkscape"
   width="210mm"
   height="297mm"
   viewBox="0 0 210 297"
   version="1.1"
   id="svg8"
   inkscape:version="0.92.4 (5da689c313, 2019-01-14)"
   sodipodi:docname="tot.svg">
  <defs
     id="defs2">
    <linearGradient
       inkscape:collect="always"
       id="linearGradient4857">
      <stop
         style="stop-color:#000000;stop-opacity:1;"
         offset="0"
         id="stop4853" />
      <stop
         style="stop-color:#000000;stop-opacity:0;"
         offset="1"
         id="stop4855" />
    </linearGradient>
    <linearGradient
       inkscape:collect="always"
       xlink:href="#linearGradient4857"
       id="linearGradient4851"
       x1="-568.0885"
       y1="-116.27255"
       x2="-602.21057"
       y2="-146.27158"
       gradientUnits="userSpaceOnUse"
       gradientTransform="matrix(3.1189881,0,0,3.1189881,1898.1426,477.47282)" />
  </defs>
  <sodipodi:namedview
     id="base"
     pagecolor="#ffffff"
     bordercolor="#666666"
     borderopacity="1.0"
     inkscape:pageopacity="0.0"
     inkscape:pageshadow="2"
     inkscape:zoom="1.28"
     inkscape:cx="-603.44918"
     inkscape:cy="794.54198"
     inkscape:document-units="px"
     inkscape:current-layer="layer1"
     showgrid="false"
     showborder="true"
     inkscape:window-width="2560"
     inkscape:window-height="1017"
     inkscape:window-x="1358"
     inkscape:window-y="-8"
     inkscape:window-maximized="1"
     inkscape:object-nodes="false"
     inkscape:snap-nodes="false"
     inkscape:object-paths="true"
     inkscape:snap-intersection-paths="false"
     inkscape:snap-smooth-nodes="false" />
  <metadata
     id="metadata5">
    <rdf:RDF>
      <cc:Work
         rdf:about="">
        <dc:format>image/svg+xml</dc:format>
        <dc:type
           rdf:resource="http://purl.org/dc/dcmitype/StillImage" />
        <dc:title />
      </cc:Work>
    </rdf:RDF>
  </metadata>
  <g
     inkscape:label="Capa 1"
     inkscape:groupmode="layer"
     id="layer1">
    <path
       style="opacity:1;fill:url(#linearGradient4851);fill-opacity:1;stroke:none;stroke-width:8.2523222;stroke-miterlimit:4;stroke-dasharray:none"
       inkscape:transform-center-x="0.31760689"
       inkscape:transform-center-y="-2.0286883"
       d="M 126.75688,117.40128 C 106.82536,90.102706 85.605954,64.864794 55.976878,53.082318 L 62.99457,38.778292 c 42.17529,25.335949 59.21205,51.719314 63.76231,78.622988 z"
       id="path832"
       inkscape:connector-curvature="0"
       sodipodi:nodetypes="cccc" />
    <path
       style="opacity:0.51700003;fill:#000000;fill-opacity:1;stroke:none;stroke-width:7.71345186;stroke-miterlimit:4;stroke-dasharray:none"
       d="m 23.451567,35.241644 a 19.451902,19.451902 0 0 0 -0.208039,1.382894 19.451902,19.451902 0 0 0 -0.09825,1.942195 19.451902,19.451902 0 0 0 0.0499,1.376472 19.451902,19.451902 0 0 0 0.233613,1.929281 19.451902,19.451902 0 0 0 0.425459,1.897092 19.451902,19.451902 0 0 0 0.614162,1.845475 19.451902,19.451902 0 0 0 0.79297,1.77458 19.451902,19.451902 0 0 0 0.968634,1.687527 19.451902,19.451902 0 0 0 1.129915,1.581173 19.451902,19.451902 0 0 0 1.282998,1.460278 19.451902,19.451902 0 0 0 1.423192,1.324882 19.451902,19.451902 0 0 0 1.5473,1.176611 19.451902,19.451902 0 0 0 1.658491,1.017006 19.451902,19.451902 0 0 0 1.750375,0.846182 19.451902,19.451902 0 0 0 1.826169,0.665685 19.451902,19.451902 0 0 0 1.88418,0.481914 19.451902,19.451902 0 0 0 1.922859,0.290067 19.451902,19.451902 0 0 0 1.942195,0.09669 19.451902,19.451902 0 0 0 1.376472,-0.04834 19.451902,19.451902 0 0 0 1.929311,-0.23361 19.451902,19.451902 0 0 0 1.897064,-0.425492 19.451902,19.451902 0 0 0 1.845472,-0.6141 19.451902,19.451902 0 0 0 1.774579,-0.794625 19.451902,19.451902 0 0 0 1.687594,-0.967074 19.451902,19.451902 0 0 0 1.58114,-1.131442 19.451902,19.451902 0 0 0 1.460246,-1.282994 19.451902,19.451902 0 0 0 1.324915,-1.421607 19.451902,19.451902 0 0 0 1.178167,-1.548919 19.451902,19.451902 0 0 0 1.01545,-1.656901 19.451902,19.451902 0 0 0 0.846211,-1.750408 19.451902,19.451902 0 0 0 0.665623,-1.827758 19.451902,19.451902 0 0 0 0.481947,-1.882559 19.451902,19.451902 0 0 0 0.290068,-1.922856 19.451902,19.451902 0 0 0 0.09669,-1.942191 19.451902,19.451902 0 0 0 -0.04834,-1.376443 19.451902,19.451902 0 0 0 -0.233614,-1.92931 19.451902,19.451902 0 0 0 -0.425492,-1.897065 19.451902,19.451902 0 0 0 -0.614034,-1.845504 19.451902,19.451902 0 0 0 -0.793064,-1.77458 19.451902,19.451902 0 0 0 -0.968663,-1.687527 19.451902,19.451902 0 0 0 -1.129824,-1.58114 19.451902,19.451902 0 0 0 -1.284617,-1.460278 19.451902,19.451902 0 0 0 -1.421545,-1.326509 19.451902,19.451902 0 0 0 -1.548982,-1.176607 19.451902,19.451902 0 0 0 -1.656901,-1.015416 19.451902,19.451902 0 0 0 -1.750408,-0.846182 19.451902,19.451902 0 0 0 -1.827692,-0.667275 19.451902,19.451902 0 0 0 -1.882624,-0.480324 19.451902,19.451902 0 0 0 -1.922855,-0.290068 19.451902,19.451902 0 0 0 -1.942195,-0.09825 19.451902,19.451902 0 0 0 -1.37641,0.0499 19.451902,19.451902 0 0 0 -1.929314,0.233614 19.451902,19.451902 0 0 0 -1.897127,0.425521 19.451902,19.451902 0 0 0 -1.845472,0.612477 19.451902,19.451902 0 0 0 -1.774579,0.794592 19.451902,19.451902 0 0 0 -1.687499,0.967073 19.451902,19.451902 0 0 0 -1.453822,1.039622 41.408973,36.177591 0 0 0 -7.182095,12.00455 z"
       id="path838"
       inkscape:connector-curvature="0" />
    <path
       style="opacity:0.51700003;fill:#000000;fill-opacity:1;stroke:none;stroke-width:17.46567726;stroke-miterlimit:4;stroke-dasharray:none"
       d="m 22.355844,33.589745 a 61.316365,125.26538 86.660077 0 0 -4.26315,17.88272 61.316365,125.26538 86.660077 0 0 34.777353,39.053471 33.117848,60.99455 86.859282 0 1 2.661127,1.78585 33.117848,60.99455 86.859282 0 1 3.209,2.6949 33.117848,60.99455 86.859282 0 1 2.66913,2.87542 33.117848,60.99455 86.859282 0 1 2.114659,3.026934 33.117848,60.99455 86.859282 0 1 1.531219,3.1478 33.117848,60.99455 86.859282 0 1 0.933172,3.23646 33.117848,60.99455 86.859282 0 1 0.299806,2.33064 33.117848,60.99455 86.859282 0 1 -0.104723,3.31705 33.117848,60.99455 86.859282 0 1 -0.506114,2.38705 l 0.0033,0.002 A 61.594258,129.84427 86.824821 0 0 70.098525,97.366386 61.594258,129.84427 86.824821 0 0 35.440418,58.790004 32.968473,58.843531 86.668115 0 1 32.144275,56.50611 32.968473,58.843531 86.668115 0 1 29.049653,53.822494 32.968473,58.843531 86.668115 0 1 26.47567,50.961581 32.968473,58.843531 86.668115 0 1 24.43512,47.947552 32.968473,58.843531 86.668115 0 1 22.958782,44.812636 32.968473,58.843531 86.668115 0 1 22.057789,41.590679 32.968473,58.843531 86.668115 0 1 21.767638,39.271322 32.968473,58.843531 86.668115 0 1 21.869144,35.967175 32.968473,58.843531 86.668115 0 1 22.357517,33.591406 Z M 36.07211,60.746654 a 134.24648,334.34593 86.798329 0 1 3.574908,3.905345 134.24648,334.34593 86.798329 0 1 5.942666,8.934104 134.24648,334.34593 86.798329 0 1 5.615459,12.978073 134.24648,334.34593 86.798329 0 1 0.359386,2.09854 133.64066,322.55573 86.65399 0 1 -4.097112,-4.61937 133.64066,322.55573 86.65399 0 1 -5.733136,-8.893807 133.64066,322.55573 86.65399 0 1 -5.415589,-12.921657 133.64066,322.55573 86.65399 0 1 -0.246582,-1.481228 z"
       id="path843"
       inkscape:connector-curvature="0" />
    <path
       style="opacity:1;fill:#90c53f;fill-opacity:1;stroke:none;stroke-width:2.947258;stroke-miterlimit:4;stroke-dasharray:none"
       d="M 38.067522,57.312566 C 32.643685,55.98064 27.816156,52.147357 25.405244,47.258152 23.185861,42.757347 22.677933,37.978581 24.015883,34.186693 c 1.287938,-3.650134 4.687318,-8.937915 7.117707,-11.07184 2.503922,-2.198503 7.377494,-3.826446 11.45522,-3.826446 8.948073,0 17.052602,6.517149 18.862664,15.168147 0.453217,2.16617 0.608608,7.653302 0.209691,7.406779 -0.127745,-0.07889 -1.354537,2.212548 -2.726235,5.092181 -2.388638,5.01448 -2.568703,5.295761 -4.262326,6.657471 -4.610245,3.706704 -10.88407,5.104488 -16.605082,3.699581 z"
       id="path4895"
       inkscape:connector-curvature="0" />
    <path
       style="opacity:1;fill:#90c53f;fill-opacity:1;stroke:none;stroke-width:2.947258;stroke-miterlimit:4;stroke-dasharray:none"
       d="m 66.314237,110.85245 c 0,-3.45527 -0.521876,-5.52913 -2.274176,-9.03715 -1.125366,-2.252934 -1.915446,-3.331774 -4.129378,-5.638324 -3.238211,-3.37373 -5.654165,-5.0987 -10.837858,-7.73802 C 32.180729,79.838236 21.428036,68.189028 18.832019,55.676807 18.215324,52.704255 18.104578,47.929723 18.582552,44.919318 18.9478,42.619528 20.065744,38.83101 21.011705,36.687505 l 0.687997,-1.558865 0.0083,2.905939 c 0.0083,4.795026 1.322022,8.47908 4.550494,12.763629 2.90259,3.852053 6.882027,6.996072 12.287957,9.708377 23.468538,11.77491 34.846261,28.848631 30.562481,45.863065 -0.464027,1.84304 -2.45036,7.22078 -2.667067,7.22078 -0.0685,0 -0.124527,-1.23209 -0.124527,-2.73798 z M 50.716193,84.727226 C 48.73514,78.814056 45.44568,72.501318 41.472602,66.987993 39.132896,63.741226 36.364079,60.62438 36.075742,60.91275 c -0.408821,0.408859 2.238772,7.715747 4.253827,11.739613 2.438646,4.869703 6.390354,10.875673 9.08449,13.806863 2.436333,2.65075 2.667481,2.34331 1.302134,-1.732 z"
       id="path4897"
       inkscape:connector-curvature="0" />
    <path
       inkscape:export-xdpi="61.560001"
       inkscape:export-ydpi="61.560001"
       style="opacity:1;fill:#000000;fill-opacity:1;stroke:none;stroke-width:31.18987846;stroke-miterlimit:4;stroke-dasharray:none;stroke-opacity:1"
       d="M 349.80664 683.58594 A 71.815529 71.815529 0 0 1 319.24219 733.33008 C 420.575 793.95371 510.43916 873.71678 585.17773 976.08008 C 568.09373 875.06995 506.87441 778.72593 349.80664 683.58594 z "
       transform="scale(0.26458333)"
       id="path4899" />
    <path
       inkscape:connector-curvature="0"
       id="path4903"
       d="m 97.227716,250.07273 c 0,-3.45527 -0.521876,-5.52913 -2.274176,-9.03715 -1.125366,-2.25293 -1.915446,-3.33177 -4.129378,-5.63832 -3.238211,-3.37373 -5.654165,-5.0987 -10.837858,-7.73802 -16.892096,-8.60072 -27.644789,-20.24993 -30.240806,-32.76215 -0.616695,-2.97255 -0.727441,-7.74708 -0.249467,-10.75749 0.365248,-2.29979 1.483192,-6.08831 2.429153,-8.23181 l 0.687997,-1.55887 0.0083,2.90594 c 0.0083,4.79503 1.322022,8.47908 4.550494,12.76363 2.90259,3.85205 6.882027,6.99607 12.287957,9.70838 23.468538,11.77491 34.846258,28.84863 30.562478,45.86306 -0.464024,1.84304 -2.450357,7.22078 -2.667064,7.22078 -0.0685,0 -0.124527,-1.23209 -0.124527,-2.73798 z M 81.629672,223.94751 c -1.981053,-5.91317 -5.270513,-12.22591 -9.243591,-17.73923 -2.339706,-3.24677 -5.108523,-6.36362 -5.39686,-6.07525 -0.408821,0.40886 2.238772,7.71575 4.253827,11.73962 2.438646,4.8697 6.390354,10.87567 9.08449,13.80686 2.436333,2.65075 2.667481,2.34331 1.302134,-1.732 z"
       style="opacity:1;fill:#90c53f;fill-opacity:1;stroke:none;stroke-width:2.947258;stroke-miterlimit:4;stroke-dasharray:none"
       inkscape:export-xdpi="61.560001"
       inkscape:export-ydpi="61.560001" />
    <path
       style="opacity:1;fill:#90c53f;fill-opacity:1;stroke:none;stroke-width:2.64583325;stroke-miterlimit:4;stroke-dasharray:none;stroke-opacity:1"
       id="path829"
       sodipodi:type="arc"
       sodipodi:cx="72.496857"
       sodipodi:cy="177.43863"
       sodipodi:rx="19.001192"
       sodipodi:ry="19.001192"
       sodipodi:start="0"
       sodipodi:end="6.1333139"
       sodipodi:open="true"
       d="M 91.498049,177.43863 A 19.001192,19.001192 0 0 1 73.208624,196.42649 19.001192,19.001192 0 0 1 53.548989,178.86116 19.001192,19.001192 0 0 1 70.36555,158.55735 19.001192,19.001192 0 0 1 91.285051,174.60154"
       inkscape:export-xdpi="61.560001"
       inkscape:export-ydpi="61.560001" />
    <path
       id="path824"
       d="m -120.04259,161.15573 a 19.001192,19.001192 0 0 1 -7.07911,13.72981 c 27.936265,13.98837 53.225637,33.25364 74.971795,58.7813 -6.507707,-26.31234 -24.567732,-50.51957 -67.892685,-72.51111 z"
       style="opacity:1;fill:#000000;fill-opacity:1;stroke:none;stroke-width:8.2523222;stroke-miterlimit:4;stroke-dasharray:none;stroke-opacity:1"
       inkscape:export-ydpi="233.57001"
       inkscape:export-xdpi="233.57001"
       inkscape:connector-curvature="0" />
    <path
       inkscape:export-ydpi="233.57001"
       inkscape:export-xdpi="233.57001"
       style="opacity:1;fill:#6d972d;fill-opacity:1;stroke:none;stroke-width:2.947258;stroke-miterlimit:4;stroke-dasharray:none"
       d="m -115.47648,232.0184 c 0,-3.45527 -0.52187,-5.52913 -2.27417,-9.03715 -1.12537,-2.25293 -1.91545,-3.33177 -4.12938,-5.63832 -3.23821,-3.37373 -5.65417,-5.0987 -10.83786,-7.73802 -16.89209,-8.60072 -27.64478,-20.24993 -30.2408,-32.76215 -0.6167,-2.97255 -0.72744,-7.74708 -0.24947,-10.75749 0.36525,-2.29979 1.48319,-6.08831 2.42915,-8.23181 l 0.688,-1.55887 0.008,2.90594 c 0.008,4.79503 1.32202,8.47908 4.5505,12.76363 2.90259,3.85205 6.88202,6.99607 12.28795,9.70838 23.46854,11.77491 34.84626,28.84863 30.56248,45.86306 -0.46403,1.84304 -2.45036,7.22078 -2.66707,7.22078 -0.0685,0 -0.12452,-1.23209 -0.12452,-2.73798 z m -15.59804,-26.12522 c -1.98105,-5.91317 -5.27051,-12.22591 -9.24359,-17.73923 -2.3397,-3.24677 -5.10852,-6.36362 -5.39686,-6.07525 -0.40882,0.40886 2.23877,7.71575 4.25383,11.73962 2.43864,4.8697 6.39035,10.87567 9.08449,13.80686 2.43633,2.65075 2.66748,2.34331 1.30213,-1.732 z"
       id="path826"
       inkscape:connector-curvature="0" />
    <path
       inkscape:export-ydpi="233.57001"
       inkscape:export-xdpi="233.57001"
       d="m -121.20614,159.38431 a 19.001192,19.001192 0 0 1 -18.28943,18.98785 19.001192,19.001192 0 0 1 -19.65963,-17.56532 19.001192,19.001192 0 0 1 16.81656,-20.30381 19.001192,19.001192 0 0 1 20.9195,16.04419"
       sodipodi:open="true"
       sodipodi:end="6.1333139"
       sodipodi:start="0"
       sodipodi:ry="19.001192"
       sodipodi:rx="19.001192"
       sodipodi:cy="159.38431"
       sodipodi:cx="-140.20734"
       sodipodi:type="arc"
       id="path828"
       style="opacity:1;fill:#98ca4d;fill-opacity:1;stroke:none;stroke-width:2.64583325;stroke-miterlimit:4;stroke-dasharray:none;stroke-opacity:1" />
    <path
       style="opacity:1;fill:#ffffff;fill-opacity:1;stroke:none;stroke-width:5.01122332;stroke-miterlimit:4;stroke-dasharray:none;stroke-opacity:1"
       id="path830"
       sodipodi:type="arc"
       sodipodi:cx="-129.28119"
       sodipodi:cy="158.07204"
       sodipodi:rx="2.557853"
       sodipodi:ry="2.704016"
       sodipodi:start="0"
       sodipodi:end="6.1333139"
       sodipodi:open="true"
       d="m -126.72334,158.07204 a 2.557853,2.704016 0 0 1 -2.46203,2.70211 2.557853,2.704016 0 0 1 -2.64649,-2.49968 2.557853,2.704016 0 0 1 2.26376,-2.88939 2.557853,2.704016 0 0 1 2.81609,2.28322"
       inkscape:export-xdpi="233.57001"
       inkscape:export-ydpi="233.57001" />
    <path
       style="opacity:1;fill:none;fill-opacity:1;stroke:#000000;stroke-width:2.64583325;stroke-miterlimit:4;stroke-dasharray:none;stroke-opacity:1"
       d="m -55.358752,78.251593 a 20.877279,20.877279 0 0 1 -20.84662,19.74623 20.877279,20.877279 0 0 1 -20.84668,-19.74733"
       id="path844"
       inkscape:connector-curvature="0" />
    <path
       style="opacity:1;fill:#e6b830;fill-opacity:1;stroke:none;stroke-width:2.73609543;stroke-miterlimit:4;stroke-dasharray:none;stroke-opacity:1"
       id="path841"
       sodipodi:type="arc"
       sodipodi:cx="-76.177505"
       sodipodi:cy="79.510956"
       sodipodi:rx="17.231026"
       sodipodi:ry="17.231026"
       sodipodi:start="0"
       sodipodi:end="6.1333139"
       sodipodi:open="true"
       d="M -58.94648,79.510956 A 17.231026,17.231026 0 0 1 -75.532047,96.729888 17.231026,17.231026 0 0 1 -93.360175,80.800967 17.231026,17.231026 0 0 1 -78.110258,62.388669 17.231026,17.231026 0 0 1 -59.139635,76.938174" />
    <path
       inkscape:connector-curvature="0"
       inkscape:export-xdpi="233.57001"
       inkscape:export-ydpi="233.57001"
       style="opacity:1;fill:#000000;fill-opacity:1;stroke:none;stroke-width:8.2523222;stroke-miterlimit:4;stroke-dasharray:none;stroke-opacity:1"
       d="m -228.9765,50.981573 a 19.001192,19.001192 0 0 1 -7.07911,13.72981 c 27.93626,13.98837 53.22563,33.25364 74.97179,58.781297 -6.50771,-26.312337 -24.56773,-50.519567 -67.89268,-72.511107 z"
       id="path834" />
    <path
       style="opacity:1;fill:#6d972d;fill-opacity:1;stroke:none;stroke-width:11.13924313;stroke-miterlimit:4;stroke-dasharray:none"
       d="M -1016.7871 174.3125 L -1019.3867 180.20508 C -1022.962 188.3065 -1027.1879 202.62624 -1028.5684 211.31836 C -1030.3749 222.69629 -1029.9558 240.74173 -1027.625 251.97656 C -1017.8133 299.26684 -977.1742 343.29412 -913.33008 375.80078 C -893.73818 385.77615 -884.60609 392.29577 -872.36719 405.04688 C -863.99958 413.76454 -861.01313 417.84241 -856.75977 426.35742 C -850.1369 439.61608 -848.16602 447.45438 -848.16602 460.51367 L -848.1543 460.51367 C -848.1543 466.20522 -847.94249 470.86133 -847.68359 470.86133 C -846.86453 470.86133 -839.35733 450.53613 -837.60352 443.57031 C -821.41285 379.26381 -864.41524 314.73407 -953.11523 270.23047 C -973.5471 259.97922 -988.58817 248.09604 -999.55859 233.53711 C -1011.7607 217.34353 -1016.7276 203.41982 -1016.7578 185.29688 L -1016.7871 174.3125 z "
       transform="scale(0.26458333)"
       id="path836" />
    <path
       style="opacity:1;fill:#98ca4d;fill-opacity:1;stroke:none;stroke-width:2.64583325;stroke-miterlimit:4;stroke-dasharray:none;stroke-opacity:1"
       id="path839"
       sodipodi:type="arc"
       sodipodi:cx="-249.14125"
       sodipodi:cy="49.210155"
       sodipodi:rx="19.001192"
       sodipodi:ry="19.001192"
       sodipodi:start="0"
       sodipodi:end="6.1333139"
       sodipodi:open="true"
       d="m -230.14006,49.210155 a 19.001192,19.001192 0 0 1 -18.28942,18.987857 19.001192,19.001192 0 0 1 -19.65964,-17.565321 19.001192,19.001192 0 0 1 16.81656,-20.303818 19.001192,19.001192 0 0 1 20.9195,16.044196"
       inkscape:export-xdpi="233.57001"
       inkscape:export-ydpi="233.57001" />
    <path
       inkscape:export-ydpi="233.57001"
       inkscape:export-xdpi="233.57001"
       d="m -235.65725,47.897884 a 2.557853,2.704016 0 0 1 -2.46204,2.702119 2.557853,2.704016 0 0 1 -2.64649,-2.499681 2.557853,2.704016 0 0 1 2.26377,-2.88939 2.557853,2.704016 0 0 1 2.81609,2.283213"
       sodipodi:open="true"
       sodipodi:end="6.1333139"
       sodipodi:start="0"
       sodipodi:ry="2.704016"
       sodipodi:rx="2.557853"
       sodipodi:cy="47.897884"
       sodipodi:cx="-238.2151"
       sodipodi:type="arc"
       id="path842"
       style="opacity:1;fill:#ffffff;fill-opacity:1;stroke:none;stroke-width:5.01122332;stroke-miterlimit:4;stroke-dasharray:none;stroke-opacity:1" />
  </g>
</svg>
