<?xml version="1.0" encoding="UTF-8" standalone="no"?>
<!-- Created with Inkscape (http://www.inkscape.org/) -->

<svg
   xmlns:dc="http://purl.org/dc/elements/1.1/"
   xmlns:cc="http://creativecommons.org/ns#"
   xmlns:rdf="http://www.w3.org/1999/02/22-rdf-syntax-ns#"
   xmlns:svg="http://www.w3.org/2000/svg"
   xmlns="http://www.w3.org/2000/svg"
   xmlns:xlink="http://www.w3.org/1999/xlink"
   xmlns:sodipodi="http://sodipodi.sourceforge.net/DTD/sodipodi-0.dtd"
   xmlns:inkscape="http://www.inkscape.org/namespaces/inkscape"
   width="210mm"
   height="297mm"
   viewBox="0 0 210 297"
   version="1.1"
   id="svg8"
   inkscape:version="0.92.4 (5da689c313, 2019-01-14)"
   sodipodi:docname="tot.svg">
  <defs
     id="defs2">
    <linearGradient
       inkscape:collect="always"
       id="linearGradient857">
      <stop
         style="stop-color:#6d972d;stop-opacity:1;"
         offset="0"
         id="stop853" />
      <stop
         style="stop-color:#6d972d;stop-opacity:0;"
         offset="1"
         id="stop855" />
    </linearGradient>
    <linearGradient
       inkscape:collect="always"
       id="linearGradient4857">
      <stop
         style="stop-color:#000000;stop-opacity:1;"
         offset="0"
         id="stop4853" />
      <stop
         style="stop-color:#000000;stop-opacity:0;"
         offset="1"
         id="stop4855" />
    </linearGradient>
    <linearGradient
       inkscape:collect="always"
       xlink:href="#linearGradient4857"
       id="linearGradient4851"
       x1="-568.0885"
       y1="-116.27255"
       x2="-602.21057"
       y2="-146.27158"
       gradientUnits="userSpaceOnUse"
       gradientTransform="matrix(3.1189881,0,0,3.1189881,1898.1426,477.47282)" />
    <linearGradient
       inkscape:collect="always"
       xlink:href="#linearGradient857"
       id="linearGradient859"
       x1="-249.0804"
       y1="234.36816"
       x2="-310.67871"
       y2="129.77507"
       gradientUnits="userSpaceOnUse"
       gradientTransform="translate(7.3081512,19.293519)" />
  </defs>
  <sodipodi:namedview
     id="base"
     pagecolor="#ffffff"
     bordercolor="#666666"
     borderopacity="1.0"
     inkscape:pageopacity="0.0"
     inkscape:pageshadow="2"
     inkscape:zoom="0.32"
     inkscape:cx="-664.92435"
     inkscape:cy="999.13277"
     inkscape:document-units="px"
     inkscape:current-layer="layer1"
     showgrid="false"
     showborder="false"
     inkscape:window-width="2560"
     inkscape:window-height="1017"
     inkscape:window-x="1358"
     inkscape:window-y="-8"
     inkscape:window-maximized="1"
     inkscape:object-nodes="false"
     inkscape:snap-nodes="false"
     inkscape:object-paths="true"
     inkscape:snap-intersection-paths="false"
     inkscape:snap-smooth-nodes="false" />
  <metadata
     id="metadata5">
    <rdf:RDF>
      <cc:Work
         rdf:about="">
        <dc:format>image/svg+xml</dc:format>
        <dc:type
           rdf:resource="http://purl.org/dc/dcmitype/StillImage" />
        <dc:title />
      </cc:Work>
    </rdf:RDF>
  </metadata>
  <g
     inkscape:label="Capa 1"
     inkscape:groupmode="layer"
     id="layer1">
    <path
       style="opacity:1;fill:url(#linearGradient4851);fill-opacity:1;stroke:none;stroke-width:8.2523222;stroke-miterlimit:4;stroke-dasharray:none"
       inkscape:transform-center-x="0.31760689"
       inkscape:transform-center-y="-2.0286883"
       d="M 126.75688,117.40128 C 106.82536,90.102706 85.605954,64.864794 55.976878,53.082318 L 62.99457,38.778292 c 42.17529,25.335949 59.21205,51.719314 63.76231,78.622988 z"
       id="path832"
       inkscape:connector-curvature="0"
       sodipodi:nodetypes="cccc" />
    <path
       style="opacity:0.51700003;fill:#000000;fill-opacity:1;stroke:none;stroke-width:7.71345186;stroke-miterlimit:4;stroke-dasharray:none"
       d="m 23.451567,35.241644 a 19.451902,19.451902 0 0 0 -0.208039,1.382894 19.451902,19.451902 0 0 0 -0.09825,1.942195 19.451902,19.451902 0 0 0 0.0499,1.376472 19.451902,19.451902 0 0 0 0.233613,1.929281 19.451902,19.451902 0 0 0 0.425459,1.897092 19.451902,19.451902 0 0 0 0.614162,1.845475 19.451902,19.451902 0 0 0 0.79297,1.77458 19.451902,19.451902 0 0 0 0.968634,1.687527 19.451902,19.451902 0 0 0 1.129915,1.581173 19.451902,19.451902 0 0 0 1.282998,1.460278 19.451902,19.451902 0 0 0 1.423192,1.324882 19.451902,19.451902 0 0 0 1.5473,1.176611 19.451902,19.451902 0 0 0 1.658491,1.017006 19.451902,19.451902 0 0 0 1.750375,0.846182 19.451902,19.451902 0 0 0 1.826169,0.665685 19.451902,19.451902 0 0 0 1.88418,0.481914 19.451902,19.451902 0 0 0 1.922859,0.290067 19.451902,19.451902 0 0 0 1.942195,0.09669 19.451902,19.451902 0 0 0 1.376472,-0.04834 19.451902,19.451902 0 0 0 1.929311,-0.23361 19.451902,19.451902 0 0 0 1.897064,-0.425492 19.451902,19.451902 0 0 0 1.845472,-0.6141 19.451902,19.451902 0 0 0 1.774579,-0.794625 19.451902,19.451902 0 0 0 1.687594,-0.967074 19.451902,19.451902 0 0 0 1.58114,-1.131442 19.451902,19.451902 0 0 0 1.460246,-1.282994 19.451902,19.451902 0 0 0 1.324915,-1.421607 19.451902,19.451902 0 0 0 1.178167,-1.548919 19.451902,19.451902 0 0 0 1.01545,-1.656901 19.451902,19.451902 0 0 0 0.846211,-1.750408 19.451902,19.451902 0 0 0 0.665623,-1.827758 19.451902,19.451902 0 0 0 0.481947,-1.882559 19.451902,19.451902 0 0 0 0.290068,-1.922856 19.451902,19.451902 0 0 0 0.09669,-1.942191 19.451902,19.451902 0 0 0 -0.04834,-1.376443 19.451902,19.451902 0 0 0 -0.233614,-1.92931 19.451902,19.451902 0 0 0 -0.425492,-1.897065 19.451902,19.451902 0 0 0 -0.614034,-1.845504 19.451902,19.451902 0 0 0 -0.793064,-1.77458 19.451902,19.451902 0 0 0 -0.968663,-1.687527 19.451902,19.451902 0 0 0 -1.129824,-1.58114 19.451902,19.451902 0 0 0 -1.284617,-1.460278 19.451902,19.451902 0 0 0 -1.421545,-1.326509 19.451902,19.451902 0 0 0 -1.548982,-1.176607 19.451902,19.451902 0 0 0 -1.656901,-1.015416 19.451902,19.451902 0 0 0 -1.750408,-0.846182 19.451902,19.451902 0 0 0 -1.827692,-0.667275 19.451902,19.451902 0 0 0 -1.882624,-0.480324 19.451902,19.451902 0 0 0 -1.922855,-0.290068 19.451902,19.451902 0 0 0 -1.942195,-0.09825 19.451902,19.451902 0 0 0 -1.37641,0.0499 19.451902,19.451902 0 0 0 -1.929314,0.233614 19.451902,19.451902 0 0 0 -1.897127,0.425521 19.451902,19.451902 0 0 0 -1.845472,0.612477 19.451902,19.451902 0 0 0 -1.774579,0.794592 19.451902,19.451902 0 0 0 -1.687499,0.967073 19.451902,19.451902 0 0 0 -1.453822,1.039622 41.408973,36.177591 0 0 0 -7.182095,12.00455 z"
       id="path838"
       inkscape:connector-curvature="0" />
    <path
       style="opacity:0.51700003;fill:#000000;fill-opacity:1;stroke:none;stroke-width:17.46567726;stroke-miterlimit:4;stroke-dasharray:none"
       d="m 22.355844,33.589745 a 61.316365,125.26538 86.660077 0 0 -4.26315,17.88272 61.316365,125.26538 86.660077 0 0 34.777353,39.053471 33.117848,60.99455 86.859282 0 1 2.661127,1.78585 33.117848,60.99455 86.859282 0 1 3.209,2.6949 33.117848,60.99455 86.859282 0 1 2.66913,2.87542 33.117848,60.99455 86.859282 0 1 2.114659,3.026934 33.117848,60.99455 86.859282 0 1 1.531219,3.1478 33.117848,60.99455 86.859282 0 1 0.933172,3.23646 33.117848,60.99455 86.859282 0 1 0.299806,2.33064 33.117848,60.99455 86.859282 0 1 -0.104723,3.31705 33.117848,60.99455 86.859282 0 1 -0.506114,2.38705 l 0.0033,0.002 A 61.594258,129.84427 86.824821 0 0 70.098525,97.366386 61.594258,129.84427 86.824821 0 0 35.440418,58.790004 32.968473,58.843531 86.668115 0 1 32.144275,56.50611 32.968473,58.843531 86.668115 0 1 29.049653,53.822494 32.968473,58.843531 86.668115 0 1 26.47567,50.961581 32.968473,58.843531 86.668115 0 1 24.43512,47.947552 32.968473,58.843531 86.668115 0 1 22.958782,44.812636 32.968473,58.843531 86.668115 0 1 22.057789,41.590679 32.968473,58.843531 86.668115 0 1 21.767638,39.271322 32.968473,58.843531 86.668115 0 1 21.869144,35.967175 32.968473,58.843531 86.668115 0 1 22.357517,33.591406 Z M 36.07211,60.746654 a 134.24648,334.34593 86.798329 0 1 3.574908,3.905345 134.24648,334.34593 86.798329 0 1 5.942666,8.934104 134.24648,334.34593 86.798329 0 1 5.615459,12.978073 134.24648,334.34593 86.798329 0 1 0.359386,2.09854 133.64066,322.55573 86.65399 0 1 -4.097112,-4.61937 133.64066,322.55573 86.65399 0 1 -5.733136,-8.893807 133.64066,322.55573 86.65399 0 1 -5.415589,-12.921657 133.64066,322.55573 86.65399 0 1 -0.246582,-1.481228 z"
       id="path843"
       inkscape:connector-curvature="0" />
    <path
       style="opacity:1;fill:#90c53f;fill-opacity:1;stroke:none;stroke-width:2.947258;stroke-miterlimit:4;stroke-dasharray:none"
       d="M 38.067522,57.312566 C 32.643685,55.98064 27.816156,52.147357 25.405244,47.258152 23.185861,42.757347 22.677933,37.978581 24.015883,34.186693 c 1.287938,-3.650134 4.687318,-8.937915 7.117707,-11.07184 2.503922,-2.198503 7.377494,-3.826446 11.45522,-3.826446 8.948073,0 17.052602,6.517149 18.862664,15.168147 0.453217,2.16617 0.608608,7.653302 0.209691,7.406779 -0.127745,-0.07889 -1.354537,2.212548 -2.726235,5.092181 -2.388638,5.01448 -2.568703,5.295761 -4.262326,6.657471 -4.610245,3.706704 -10.88407,5.104488 -16.605082,3.699581 z"
       id="path4895"
       inkscape:connector-curvature="0" />
    <path
       style="opacity:1;fill:#90c53f;fill-opacity:1;stroke:none;stroke-width:2.947258;stroke-miterlimit:4;stroke-dasharray:none"
       d="m 66.314237,110.85245 c 0,-3.45527 -0.521876,-5.52913 -2.274176,-9.03715 -1.125366,-2.252934 -1.915446,-3.331774 -4.129378,-5.638324 -3.238211,-3.37373 -5.654165,-5.0987 -10.837858,-7.73802 C 32.180729,79.838236 21.428036,68.189028 18.832019,55.676807 18.215324,52.704255 18.104578,47.929723 18.582552,44.919318 18.9478,42.619528 20.065744,38.83101 21.011705,36.687505 l 0.687997,-1.558865 0.0083,2.905939 c 0.0083,4.795026 1.322022,8.47908 4.550494,12.763629 2.90259,3.852053 6.882027,6.996072 12.287957,9.708377 23.468538,11.77491 34.846261,28.848631 30.562481,45.863065 -0.464027,1.84304 -2.45036,7.22078 -2.667067,7.22078 -0.0685,0 -0.124527,-1.23209 -0.124527,-2.73798 z M 50.716193,84.727226 C 48.73514,78.814056 45.44568,72.501318 41.472602,66.987993 39.132896,63.741226 36.364079,60.62438 36.075742,60.91275 c -0.408821,0.408859 2.238772,7.715747 4.253827,11.739613 2.438646,4.869703 6.390354,10.875673 9.08449,13.806863 2.436333,2.65075 2.667481,2.34331 1.302134,-1.732 z"
       id="path4897"
       inkscape:connector-curvature="0" />
    <path
       inkscape:export-xdpi="61.560001"
       inkscape:export-ydpi="61.560001"
       style="opacity:1;fill:#000000;fill-opacity:1;stroke:none;stroke-width:31.18987846;stroke-miterlimit:4;stroke-dasharray:none;stroke-opacity:1"
       d="M 349.80664 683.58594 A 71.815529 71.815529 0 0 1 319.24219 733.33008 C 420.575 793.95371 510.43916 873.71678 585.17773 976.08008 C 568.09373 875.06995 506.87441 778.72593 349.80664 683.58594 z "
       transform="scale(0.26458333)"
       id="path4899" />
    <path
       inkscape:connector-curvature="0"
       id="path4903"
       d="m 97.227716,250.07273 c 0,-3.45527 -0.521876,-5.52913 -2.274176,-9.03715 -1.125366,-2.25293 -1.915446,-3.33177 -4.129378,-5.63832 -3.238211,-3.37373 -5.654165,-5.0987 -10.837858,-7.73802 -16.892096,-8.60072 -27.644789,-20.24993 -30.240806,-32.76215 -0.616695,-2.97255 -0.727441,-7.74708 -0.249467,-10.75749 0.365248,-2.29979 1.483192,-6.08831 2.429153,-8.23181 l 0.687997,-1.55887 0.0083,2.90594 c 0.0083,4.79503 1.322022,8.47908 4.550494,12.76363 2.90259,3.85205 6.882027,6.99607 12.287957,9.70838 23.468538,11.77491 34.846258,28.84863 30.562478,45.86306 -0.464024,1.84304 -2.450357,7.22078 -2.667064,7.22078 -0.0685,0 -0.124527,-1.23209 -0.124527,-2.73798 z M 81.629672,223.94751 c -1.981053,-5.91317 -5.270513,-12.22591 -9.243591,-17.73923 -2.339706,-3.24677 -5.108523,-6.36362 -5.39686,-6.07525 -0.408821,0.40886 2.238772,7.71575 4.253827,11.73962 2.438646,4.8697 6.390354,10.87567 9.08449,13.80686 2.436333,2.65075 2.667481,2.34331 1.302134,-1.732 z"
       style="opacity:1;fill:#90c53f;fill-opacity:1;stroke:none;stroke-width:2.947258;stroke-miterlimit:4;stroke-dasharray:none"
       inkscape:export-xdpi="61.560001"
       inkscape:export-ydpi="61.560001" />
    <path
       style="opacity:1;fill:#90c53f;fill-opacity:1;stroke:none;stroke-width:2.64583325;stroke-miterlimit:4;stroke-dasharray:none;stroke-opacity:1"
       id="path829"
       sodipodi:type="arc"
       sodipodi:cx="72.496857"
       sodipodi:cy="177.43863"
       sodipodi:rx="19.001192"
       sodipodi:ry="19.001192"
       sodipodi:start="0"
       sodipodi:end="6.1333139"
       sodipodi:open="true"
       d="M 91.498049,177.43863 A 19.001192,19.001192 0 0 1 73.208624,196.42649 19.001192,19.001192 0 0 1 53.548989,178.86116 19.001192,19.001192 0 0 1 70.36555,158.55735 19.001192,19.001192 0 0 1 91.285051,174.60154"
       inkscape:export-xdpi="61.560001"
       inkscape:export-ydpi="61.560001" />
    <path
       id="path824"
       d="m -354.37448,10.699776 a 19.001192,19.001192 0 0 1 -7.07911,13.72981 c 27.93626,13.98837 53.22564,33.25364 74.97179,58.7813 -6.5077,-26.31234 -24.56773,-50.51957 -67.89268,-72.51111 z"
       style="opacity:1;fill:#000000;fill-opacity:1;stroke:none;stroke-width:8.2523222;stroke-miterlimit:4;stroke-dasharray:none;stroke-opacity:1"
       inkscape:export-ydpi="14.6"
       inkscape:export-xdpi="14.6"
       inkscape:connector-curvature="0" />
    <path
       inkscape:export-ydpi="14.6"
       inkscape:export-xdpi="14.6"
       style="opacity:1;fill:#6d972d;fill-opacity:1;stroke:none;stroke-width:2.947258;stroke-miterlimit:4;stroke-dasharray:none"
       d="m -349.80837,81.562446 c 0,-3.45527 -0.52187,-5.52913 -2.27417,-9.03715 -1.12537,-2.25293 -1.91545,-3.33177 -4.12938,-5.63832 -3.23821,-3.37373 -5.65417,-5.0987 -10.83787,-7.73802 -16.89209,-8.60072 -27.64478,-20.24993 -30.2408,-32.76215 -0.6167,-2.97255 -0.72744,-7.74708 -0.24947,-10.75749 0.36525,-2.29979 1.48319,-6.0883098 2.42915,-8.2318098 l 0.688,-1.55887 0.008,2.90594 c 0.008,4.7950298 1.32202,8.4790798 4.5505,12.7636298 2.90259,3.85205 6.88202,6.99607 12.28795,9.70838 23.46855,11.77491 34.84627,28.84863 30.56249,45.86306 -0.46403,1.84304 -2.45036,7.22078 -2.66707,7.22078 -0.0685,0 -0.12452,-1.23209 -0.12452,-2.73798 z m -15.59805,-26.12522 c -1.98105,-5.91317 -5.27051,-12.22591 -9.24359,-17.73923 -2.3397,-3.24677 -5.10852,-6.36362 -5.39686,-6.07525 -0.40882,0.40886 2.23877,7.71575 4.25383,11.73962 2.43864,4.8697 6.39035,10.87567 9.08449,13.80686 2.43633,2.65075 2.66748,2.34331 1.30213,-1.732 z"
       id="path826"
       inkscape:connector-curvature="0" />
    <path
       inkscape:export-ydpi="14.6"
       inkscape:export-xdpi="14.6"
       d="m -355.53802,8.9283543 a 19.001192,19.001192 0 0 1 -18.28943,18.9878567 19.001192,19.001192 0 0 1 -19.65963,-17.565321 19.001192,19.001192 0 0 1 16.81656,-20.3038183 19.001192,19.001192 0 0 1 20.9195,16.0441959"
       sodipodi:open="true"
       sodipodi:end="6.1333139"
       sodipodi:start="0"
       sodipodi:ry="19.001192"
       sodipodi:rx="19.001192"
       sodipodi:cy="8.9283543"
       sodipodi:cx="-374.53922"
       sodipodi:type="arc"
       id="path828"
       style="opacity:1;fill:#98ca4d;fill-opacity:1;stroke:none;stroke-width:2.64583325;stroke-miterlimit:4;stroke-dasharray:none;stroke-opacity:1" />
    <path
       style="opacity:1;fill:#ffffff;fill-opacity:1;stroke:none;stroke-width:5.01122332;stroke-miterlimit:4;stroke-dasharray:none;stroke-opacity:1"
       id="path830"
       sodipodi:type="arc"
       sodipodi:cx="-363.6131"
       sodipodi:cy="7.6160831"
       sodipodi:rx="2.557853"
       sodipodi:ry="2.704016"
       sodipodi:start="0"
       sodipodi:end="6.1333139"
       sodipodi:open="true"
       d="m -361.05525,7.6160831 a 2.557853,2.704016 0 0 1 -2.46203,2.7021179 2.557853,2.704016 0 0 1 -2.64649,-2.4996801 2.557853,2.704016 0 0 1 2.26377,-2.8893897 2.557853,2.704016 0 0 1 2.81608,2.2832127"
       inkscape:export-xdpi="14.6"
       inkscape:export-ydpi="14.6" />
    <path
       style="opacity:1;fill:none;fill-opacity:1;stroke:#000000;stroke-width:2.64583325;stroke-miterlimit:4;stroke-dasharray:none;stroke-opacity:1"
       d="M -116.13024,-7.7379905 A 20.877279,20.877279 0 0 1 -136.97686,12.00824 20.877279,20.877279 0 0 1 -157.82354,-7.7390905"
       id="path844"
       inkscape:connector-curvature="0" />
    <path
       style="opacity:1;fill:#e6b830;fill-opacity:1;stroke:none;stroke-width:2.73609543;stroke-miterlimit:4;stroke-dasharray:none;stroke-opacity:1"
       id="path841"
       sodipodi:type="arc"
       sodipodi:cx="-136.94899"
       sodipodi:cy="-6.4786277"
       sodipodi:rx="17.231026"
       sodipodi:ry="17.231026"
       sodipodi:start="0"
       sodipodi:end="6.1333139"
       sodipodi:open="true"
       d="m -119.71796,-6.4786277 a 17.231026,17.231026 0 0 1 -16.58557,17.2189327 17.231026,17.231026 0 0 1 -17.82813,-15.9289218 17.231026,17.231026 0 0 1 15.24992,-18.4122982 17.231026,17.231026 0 0 1 18.97062,14.5495059" />
    <path
       inkscape:connector-curvature="0"
       inkscape:export-xdpi="233.57001"
       inkscape:export-ydpi="233.57001"
       style="opacity:1;fill:#000000;fill-opacity:1;stroke:none;stroke-width:8.2523222;stroke-miterlimit:4;stroke-dasharray:none;stroke-opacity:1"
       d="m -114.87494,40.646287 a 19.001192,19.001192 0 0 1 -7.07911,13.72981 c 27.936263,13.98837 53.225633,33.25364 74.971793,58.781293 -6.50771,-26.312333 -24.56773,-50.519563 -67.892683,-72.511103 z"
       id="path834" />
    <path
       style="opacity:1;fill:#6d972d;fill-opacity:1;stroke:none;stroke-width:2.947258;stroke-miterlimit:4;stroke-dasharray:none"
       d="m -154.92335,35.784895 -0.68781,1.559079 c -0.94597,2.1435 -2.06407,5.932265 -2.42933,8.232055 -0.47797,3.010411 -0.36708,7.784933 0.24961,10.757482 2.59601,12.51222 13.34844,24.161104 30.24053,32.761824 5.18369,2.639317 7.59989,4.3643 10.8381,7.738031 2.21393,2.306547 3.00409,3.385484 4.12946,5.638414 1.7523,3.50802 2.27376,5.5819 2.27376,9.03717 h 0.003 c 0,1.50589 0.056,2.73782 0.12455,2.73782 0.21671,0 2.20299,-5.37771 2.66701,-7.22075 4.28379,-17.014425 -7.09393,-34.087918 -30.56247,-45.862829 -5.40593,-2.71231 -9.38555,-5.856401 -12.28814,-9.708451 -3.22847,-4.284552 -4.54263,-7.968533 -4.55062,-12.763561 z"
       id="path836"
       inkscape:connector-curvature="0" />
    <path
       style="opacity:1;fill:#98ca4d;fill-opacity:1;stroke:none;stroke-width:2.64583325;stroke-miterlimit:4;stroke-dasharray:none;stroke-opacity:1"
       id="path839"
       sodipodi:type="arc"
       sodipodi:cx="-135.03969"
       sodipodi:cy="38.87487"
       sodipodi:rx="19.001192"
       sodipodi:ry="19.001192"
       sodipodi:start="0"
       sodipodi:end="6.1333139"
       sodipodi:open="true"
       d="m -116.0385,38.87487 a 19.001192,19.001192 0 0 1 -18.28942,18.987857 19.001192,19.001192 0 0 1 -19.65964,-17.565321 19.001192,19.001192 0 0 1 16.81656,-20.303818 19.001192,19.001192 0 0 1 20.91951,16.044196"
       inkscape:export-xdpi="233.57001"
       inkscape:export-ydpi="233.57001" />
    <path
       inkscape:export-ydpi="233.57001"
       inkscape:export-xdpi="233.57001"
       d="m -121.55569,37.562599 a 2.557853,2.704016 0 0 1 -2.46204,2.702118 2.557853,2.704016 0 0 1 -2.64649,-2.49968 2.557853,2.704016 0 0 1 2.26377,-2.88939 2.557853,2.704016 0 0 1 2.81609,2.283213"
       sodipodi:open="true"
       sodipodi:end="6.1333139"
       sodipodi:start="0"
       sodipodi:ry="2.704016"
       sodipodi:rx="2.557853"
       sodipodi:cy="37.562599"
       sodipodi:cx="-124.11354"
       sodipodi:type="arc"
       id="path842"
       style="opacity:1;fill:#ffffff;fill-opacity:1;stroke:none;stroke-width:5.01122332;stroke-miterlimit:4;stroke-dasharray:none;stroke-opacity:1" />
    <path
       inkscape:connector-curvature="0"
       inkscape:export-xdpi="233.57001"
       inkscape:export-ydpi="233.57001"
       style="opacity:1;fill:#000000;fill-opacity:1;stroke:none;stroke-width:8.2523222;stroke-miterlimit:4;stroke-dasharray:none;stroke-opacity:1"
       d="m -247.09316,181.27607 a 19.001192,19.001192 0 0 1 -7.07911,13.72981 c 27.93626,13.98837 53.22563,33.25364 74.97179,58.7813 -6.50771,-26.31234 -24.56773,-50.51957 -67.89268,-72.51111 z"
       id="path845" />
    <path
       inkscape:connector-curvature="0"
       id="path847"
       d="m -242.52705,252.13874 c 0,-3.45527 -0.52187,-5.52913 -2.27417,-9.03715 -1.12537,-2.25293 -1.91545,-3.33177 -4.12938,-5.63832 -3.23821,-3.37373 -5.65417,-5.0987 -10.83786,-7.73802 -16.89209,-8.60072 -27.64478,-20.24993 -30.2408,-32.76215 -0.6167,-2.97255 -0.72744,-7.74708 -0.24947,-10.75749 0.36525,-2.29979 1.48319,-6.08831 2.42915,-8.23181 l 0.688,-1.55887 0.008,2.90594 c 0.008,4.79503 1.32202,8.47908 4.5505,12.76363 2.90259,3.85205 6.88202,6.99607 12.28795,9.70838 23.46854,11.77491 34.84626,28.84863 30.56248,45.86306 -0.46403,1.84304 -2.45036,7.22078 -2.66707,7.22078 -0.0685,0 -0.12452,-1.23209 -0.12452,-2.73798 z m -15.59804,-26.12522 c -1.98105,-5.91317 -5.27051,-12.22591 -9.24359,-17.73923 -2.3397,-3.24677 -5.10852,-6.36362 -5.39686,-6.07525 -0.40882,0.40886 2.23877,7.71575 4.25383,11.73962 2.43864,4.8697 6.39035,10.87567 9.08449,13.80686 2.43633,2.65075 2.66748,2.34331 1.30213,-1.732 z"
       style="opacity:1;fill:url(#linearGradient859);fill-opacity:1;stroke:none;stroke-width:2.947258;stroke-miterlimit:4;stroke-dasharray:none"
       inkscape:export-xdpi="233.57001"
       inkscape:export-ydpi="233.57001" />
    <path
       style="opacity:1;fill:#98ca4d;fill-opacity:1;stroke:none;stroke-width:2.64583325;stroke-miterlimit:4;stroke-dasharray:none;stroke-opacity:1"
       id="path849"
       sodipodi:type="arc"
       sodipodi:cx="-267.25793"
       sodipodi:cy="179.50465"
       sodipodi:rx="19.001192"
       sodipodi:ry="19.001192"
       sodipodi:start="0"
       sodipodi:end="6.1333139"
       sodipodi:open="true"
       d="m -248.25674,179.50465 a 19.001192,19.001192 0 0 1 -18.28943,18.98786 19.001192,19.001192 0 0 1 -19.65963,-17.56532 19.001192,19.001192 0 0 1 16.81656,-20.30382 19.001192,19.001192 0 0 1 20.9195,16.0442"
       inkscape:export-xdpi="233.57001"
       inkscape:export-ydpi="233.57001" />
    <path
       inkscape:export-ydpi="233.57001"
       inkscape:export-xdpi="233.57001"
       d="m -253.77393,178.19238 a 2.557853,2.704016 0 0 1 -2.46204,2.70212 2.557853,2.704016 0 0 1 -2.64649,-2.49968 2.557853,2.704016 0 0 1 2.26377,-2.88939 2.557853,2.704016 0 0 1 2.81608,2.28321"
       sodipodi:open="true"
       sodipodi:end="6.1333139"
       sodipodi:start="0"
       sodipodi:ry="2.704016"
       sodipodi:rx="2.557853"
       sodipodi:cy="178.19238"
       sodipodi:cx="-256.33179"
       sodipodi:type="arc"
       id="path851"
       style="opacity:1;fill:#ffffff;fill-opacity:1;stroke:none;stroke-width:5.01122332;stroke-miterlimit:4;stroke-dasharray:none;stroke-opacity:1" />
  </g>
</svg>
